<?xml version="1.0" ?><svg enable-background="new 0 0 64 64" version="1.1" viewBox="0 0 64 64" xml:space="preserve" xmlns="http://www.w3.org/2000/svg" xmlns:xlink="http://www.w3.org/1999/xlink"><g id="Layer_2"/><g id="Single_Out"><g><path d="M18.49,24.94l-8.701-5.064c-0.33,0.405-0.746,0.736-1.234,0.942v22.465c0.503,0.212,0.93,0.557,1.264,0.979    l8.671-4.879V24.94z" fill="none"/><path d="M18.986,40.251l-8.674,4.881c0.13,0.35,0.211,0.724,0.211,1.119c0,0.19-0.024,0.374-0.056,0.555    l19.672,11.357c0.397-0.282,0.859-0.471,1.361-0.55V47.475L18.986,40.251z" fill="none"/><path d="M54.212,19.876l-8.701,5.064v14.443l8.671,4.879c0.334-0.422,0.761-0.767,1.264-0.979V20.818    C54.958,20.612,54.542,20.28,54.212,19.876z" fill="none"/><path d="M32.5,47.475v10.137c0.502,0.079,0.964,0.268,1.361,0.55l19.671-11.357c-0.032-0.181-0.056-0.365-0.056-0.555    c0-0.395,0.081-0.769,0.211-1.119l-8.673-4.881L32.5,47.475z" fill="none"/><path d="M26.619,32.004c0,2.967,2.414,5.38,5.381,5.38s5.38-2.413,5.38-5.38s-2.413-5.38-5.38-5.38    S26.619,29.037,26.619,32.004z M35.219,32.004c0,1.778-1.441,3.219-3.219,3.219c-1.778,0-3.219-1.441-3.219-3.219    c0-1.778,1.441-3.219,3.219-3.219C33.778,28.785,35.219,30.226,35.219,32.004z" fill="none"/><path d="M45.01,24.073l8.692-5.059c-0.141-0.362-0.225-0.752-0.225-1.163c0-0.117,0.022-0.227,0.034-0.341    L33.584,6.005c-0.33,0.188-0.693,0.321-1.083,0.382v10.464L45.01,24.073z" fill="none"/><path d="M19.49,24.941v14.445L32,46.61l12.511-7.224V24.941L32,17.717L19.49,24.941z M38.38,32.004    c0,3.518-2.862,6.38-6.38,6.38c-3.519,0-6.381-2.862-6.381-6.38s2.862-6.38,6.381-6.38C35.518,25.624,38.38,28.487,38.38,32.004z" fill="none"/><path d="M31.5,16.851V6.388c-0.39-0.061-0.753-0.194-1.084-0.382L10.489,17.51c0.012,0.114,0.034,0.224,0.034,0.341    c0,0.411-0.084,0.801-0.225,1.163l8.693,5.059L31.5,16.851z" fill="none"/><path d="M8.554,43.283V20.818C8.17,20.98,7.748,21.07,7.304,21.07c-0.444,0-0.866-0.09-1.25-0.252v22.466    c0.384-0.162,0.807-0.252,1.25-0.252C7.748,43.031,8.17,43.121,8.554,43.283z" fill="#8AD5DD"/><path d="M30.139,58.162L10.468,46.805c-0.152,0.873-0.649,1.626-1.353,2.106L28.83,60.293    C28.965,59.415,29.446,58.656,30.139,58.162z" fill="#8AD5DD"/><path d="M33.584,6.005L53.511,17.51c0.095-0.889,0.544-1.664,1.213-2.186L35.112,4.001    C34.896,4.862,34.336,5.577,33.584,6.005z" fill="#8AD5DD"/><path d="M53.532,46.805L33.861,58.162c0.693,0.494,1.174,1.253,1.309,2.131l19.715-11.383    C54.181,48.431,53.685,47.678,53.532,46.805z" fill="#8AD5DD"/><path d="M10.489,17.51L30.416,6.006c-0.752-0.429-1.312-1.144-1.529-2.004L9.276,15.324    C9.945,15.846,10.394,16.621,10.489,17.51z" fill="#8AD5DD"/><path d="M56.696,21.07c-0.443,0-0.866-0.09-1.25-0.252v22.465c0.384-0.162,0.807-0.252,1.25-0.252    c0.443,0,0.866,0.09,1.25,0.252V20.818C57.561,20.98,57.139,21.07,56.696,21.07z" fill="#8AD5DD"/><path d="M45.511,24.94l8.701-5.064c-0.211-0.259-0.387-0.545-0.51-0.862l-8.692,5.059L32.5,16.851V6.387    c-0.164,0.026-0.329,0.05-0.5,0.05c-0.171,0-0.336-0.025-0.5-0.05v10.464l-12.509,7.222l-8.693-5.059    c-0.123,0.317-0.299,0.603-0.51,0.862l8.701,5.064v14.443l-8.671,4.879c0.207,0.261,0.375,0.551,0.494,0.869l8.674-4.881    L31.5,47.475v10.137c0.164-0.026,0.329-0.05,0.5-0.05c0.171,0,0.336,0.025,0.5,0.05V47.475l12.514-7.225l8.673,4.881    c0.118-0.318,0.287-0.608,0.494-0.869l-8.671-4.879V24.94z M44.511,39.386L32,46.61L19.49,39.386V24.941L32,17.717l12.511,7.224    V39.386z" fill="#8AD5DD"/><path d="M55.446,43.283c-0.503,0.212-0.93,0.557-1.264,0.979c-0.207,0.261-0.375,0.551-0.494,0.869    c-0.13,0.35-0.211,0.724-0.211,1.119c0,0.19,0.024,0.374,0.056,0.555c0.152,0.873,0.649,1.626,1.353,2.106    c0.516,0.352,1.139,0.559,1.81,0.559c1.778,0,3.219-1.441,3.219-3.219c0-1.334-0.812-2.479-1.969-2.967    c-0.384-0.162-0.807-0.252-1.25-0.252C56.252,43.031,55.83,43.121,55.446,43.283z" fill="#DB2B42"/><path d="M8.554,20.818c0.488-0.206,0.904-0.538,1.234-0.942c0.211-0.259,0.387-0.545,0.51-0.862    c0.141-0.362,0.225-0.752,0.225-1.163c0-0.117-0.022-0.227-0.034-0.341c-0.095-0.889-0.545-1.664-1.213-2.186    c-0.546-0.427-1.225-0.692-1.972-0.692c-1.778,0-3.219,1.441-3.219,3.219c0,1.334,0.812,2.479,1.969,2.967    c0.384,0.162,0.807,0.252,1.25,0.252C7.748,21.07,8.17,20.98,8.554,20.818z" fill="#DB2B42"/><path d="M53.511,17.51c-0.012,0.114-0.034,0.224-0.034,0.341c0,0.411,0.084,0.801,0.225,1.163    c0.123,0.317,0.299,0.603,0.51,0.862c0.33,0.404,0.746,0.737,1.234,0.942c0.384,0.162,0.807,0.252,1.25,0.252    c0.443,0,0.866-0.09,1.25-0.252c1.157-0.488,1.969-1.633,1.969-2.967c0-1.778-1.441-3.219-3.219-3.219    c-0.747,0-1.426,0.265-1.972,0.692C54.055,15.846,53.606,16.621,53.511,17.51z" fill="#DB2B42"/><path d="M10.468,46.805c0.032-0.181,0.056-0.365,0.056-0.555c0-0.395-0.081-0.769-0.211-1.119    c-0.118-0.318-0.287-0.608-0.494-0.869c-0.334-0.422-0.761-0.767-1.264-0.979c-0.384-0.162-0.806-0.252-1.25-0.252    c-0.444,0-0.866,0.09-1.25,0.252c-1.157,0.488-1.969,1.633-1.969,2.967c0,1.778,1.441,3.219,3.219,3.219    c0.672,0,1.294-0.207,1.81-0.558C9.819,48.431,10.315,47.678,10.468,46.805z" fill="#DB2B42"/><circle cx="32" cy="32.004" fill="#DB2B42" r="3.219"/><path d="M25.619,32.004c0,3.518,2.862,6.38,6.381,6.38c3.518,0,6.38-2.862,6.38-6.38s-2.862-6.38-6.38-6.38    C28.482,25.624,25.619,28.487,25.619,32.004z M37.38,32.004c0,2.967-2.413,5.38-5.38,5.38s-5.381-2.413-5.381-5.38    s2.414-5.38,5.381-5.38S37.38,29.037,37.38,32.004z" fill="#DB2B42"/><path d="M30.416,6.006c0.331,0.188,0.693,0.321,1.084,0.382c0.164,0.026,0.329,0.05,0.5,0.05    c0.171,0,0.336-0.025,0.5-0.05c0.39-0.061,0.753-0.194,1.083-0.382c0.752-0.429,1.312-1.144,1.528-2.004    c0.063-0.252,0.107-0.511,0.107-0.782C35.219,1.441,33.778,0,32,0c-1.778,0-3.219,1.441-3.219,3.219    c0,0.271,0.044,0.531,0.107,0.782C29.104,4.862,29.664,5.577,30.416,6.006z" fill="#DB2B42"/><path d="M33.861,58.162c-0.396-0.282-0.859-0.471-1.361-0.55c-0.164-0.026-0.329-0.05-0.5-0.05    c-0.171,0-0.336,0.025-0.5,0.05c-0.502,0.079-0.965,0.267-1.361,0.55c-0.693,0.493-1.174,1.253-1.309,2.131    c-0.025,0.16-0.049,0.321-0.049,0.488C28.781,62.559,30.222,64,32,64c1.778,0,3.219-1.441,3.219-3.219    c0-0.167-0.025-0.327-0.049-0.488C35.035,59.416,34.554,58.656,33.861,58.162z" fill="#DB2B42"/></g></g></svg>